<?xml version="1.0" encoding="utf-8"?>
<!-- Generator: Adobe Illustrator 21.0.2, SVG Export Plug-In . SVG Version: 6.00 Build 0)  -->
<svg version="1.1" id="Layer_1" xmlns="http://www.w3.org/2000/svg" xmlns:xlink="http://www.w3.org/1999/xlink" x="0px" y="0px"
	 viewBox="0 0 512 512" style="enable-background:new 0 0 512 512;" xml:space="preserve">
<style type="text/css">
	.st0{fill:#FFFFFF;}
</style>
<g>
	<path class="st0" d="M288.5,271h-6.1c-2.1-8.4-5.4-18.6-10.8-28.8c-17.7-33.4-49.4-51.7-89.2-51.7c-40,0-71.5,18.5-88.7,52
		c-5.6,10.9-8.8,21.6-10.7,30.3c-42.1,7.7-71,40.9-71,84.6c0,44,31,78.4,74.3,85.1c2.2,0.8,4.6,1.2,7.1,1.2h195.3
		c51.3,0,89.9-37.1,89.9-86.3C378.5,307.3,340.6,271,288.5,271z M288.5,400.4H101.8c-32.1,0-46.8-22.3-46.8-43.1
		c0-25.8,18.8-43.1,46.8-43.1c11.6,0,21.1-9.2,21.6-20.8c0-0.2,0.8-16.7,9.2-32.2c10-18.5,26.3-27.5,49.8-27.5
		c23.7,0,40.2,9.1,50.5,27.7c8.6,15.6,9.7,32.2,9.7,32.2c0.5,11.5,10,20.6,21.6,20.6h24.4c28,0,46.8,17.3,46.8,43.1
		C335.3,378.1,320.7,400.4,288.5,400.4z"/>
	<path class="st0" d="M411.5,241.3c0-46.5-37.8-84.3-84.3-84.3c-16.9,0-33.2,5-47.1,14.4c-7.4,5-9.3,15.1-4.3,22.5
		s15.1,9.3,22.5,4.3c8.6-5.8,18.6-8.9,29-8.9c28.6,0,51.9,23.3,51.9,51.9c0,8.5-2,16.5-5.8,24c-4.1,7.9-1.1,17.7,6.9,21.8
		c2.4,1.2,4.9,1.8,7.5,1.8c5.8,0,11.5-3.2,14.4-8.7C408.2,268.3,411.5,254.8,411.5,241.3z"/>
	<path class="st0" d="M327.2,131.6c8.9,0,16.2-7.2,16.2-16.2V84.6c0-8.9-7.2-16.2-16.2-16.2c-8.9,0-16.2,7.2-16.2,16.2v30.8
		C311.1,124.4,318.3,131.6,327.2,131.6z"/>
	<path class="st0" d="M483.9,225.1h-30.8c-8.9,0-16.2,7.2-16.2,16.2c0,8.9,7.2,16.2,16.2,16.2h30.8c8.9,0,16.2-7.2,16.2-16.2
		C500.1,232.4,492.9,225.1,483.9,225.1z"/>
	<path class="st0" d="M416.2,168.5c4.1,0,8.3-1.6,11.4-4.7l21.8-21.8c6.3-6.3,6.3-16.6,0-22.9s-16.6-6.3-22.9,0l-21.8,21.8
		c-6.3,6.3-6.3,16.6,0,22.9C408,166.9,412.1,168.5,416.2,168.5z"/>
	<path class="st0" d="M427.7,318.8c-6.3-6.3-16.6-6.3-22.9,0s-6.3,16.6,0,22.9l21.8,21.8c3.2,3.2,7.3,4.7,11.4,4.7s8.3-1.6,11.4-4.7
		c6.3-6.3,6.3-16.6,0-22.9L427.7,318.8z"/>
	<path class="st0" d="M226.8,163.7c3.2,3.2,7.3,4.7,11.4,4.7c4.1,0,8.3-1.6,11.4-4.7c6.3-6.3,6.3-16.6,0-22.9L227.8,119
		c-6.3-6.3-16.6-6.3-22.9,0c-6.3,6.3-6.3,16.6,0,22.9L226.8,163.7z"/>
</g>
</svg>
