<?xml version="1.0" encoding="utf-8"?>
<!-- Generator: Adobe Illustrator 21.0.2, SVG Export Plug-In . SVG Version: 6.00 Build 0)  -->
<svg version="1.1" id="Layer_1" xmlns="http://www.w3.org/2000/svg" xmlns:xlink="http://www.w3.org/1999/xlink" x="0px" y="0px"
	 viewBox="0 0 512 512" style="enable-background:new 0 0 512 512;" xml:space="preserve">
<style type="text/css">
	.st0{fill:#FFFFFF;}
</style>
<g>
	<path class="st0" d="M411.8,186.1c0-46.5-37.8-84.3-84.3-84.3c-16.9,0-33.2,5-47.1,14.4c-7.4,5-9.3,15.1-4.3,22.5
		c5,7.4,15.1,9.4,22.5,4.3c8.6-5.8,18.6-8.9,29-8.9c28.6,0,51.9,23.3,51.9,51.9c0,8.5-2,16.5-5.8,24c-4.1,7.9-1.1,17.7,6.9,21.8
		c2.4,1.2,4.9,1.8,7.5,1.8c5.8,0,11.5-3.2,14.4-8.7C408.5,213.1,411.8,199.6,411.8,186.1z"/>
	<path class="st0" d="M327.5,76.4c8.9,0,16.2-7.2,16.2-16.2V29.4c0-8.9-7.2-16.2-16.2-16.2c-8.9,0-16.2,7.2-16.2,16.2v30.8
		C311.3,69.2,318.6,76.4,327.5,76.4z"/>
	<path class="st0" d="M484.2,169.9h-30.8c-8.9,0-16.2,7.2-16.2,16.2s7.2,16.2,16.2,16.2h30.8c8.9,0,16.2-7.2,16.2-16.2
		S493.1,169.9,484.2,169.9z"/>
	<path class="st0" d="M416.5,113.3c4.1,0,8.3-1.6,11.4-4.7l21.8-21.8c6.3-6.3,6.3-16.6,0-22.9s-16.6-6.3-22.9,0L405,85.7
		c-6.3,6.3-6.3,16.6,0,22.9C408.2,111.7,412.4,113.3,416.5,113.3z"/>
	<path class="st0" d="M427.9,263.6c-6.3-6.3-16.6-6.3-22.9,0s-6.3,16.6,0,22.9l21.8,21.8c3.2,3.2,7.3,4.7,11.4,4.7s8.3-1.6,11.4-4.7
		c6.3-6.3,6.3-16.6,0-22.9L427.9,263.6z"/>
	<path class="st0" d="M227.1,108.6c3.2,3.2,7.3,4.7,11.4,4.7c4.1,0,8.3-1.6,11.4-4.7c6.3-6.3,6.3-16.6,0-22.9l-21.8-21.8
		c-6.3-6.3-16.6-6.3-22.9,0c-6.3,6.3-6.3,16.6,0,22.9L227.1,108.6z"/>
	<path class="st0" d="M136.8,306.3c-10.1-2.7-20.4,3.2-23.2,13.3L83.4,431.1c-2.7,10.1,3.2,20.4,13.3,23.2c1.7,0.4,3.3,0.7,5,0.7
		c8.3,0,15.9-5.5,18.2-13.9l30.3-111.5C152.8,319.4,146.9,309.1,136.8,306.3z"/>
	<path class="st0" d="M188.8,350.2c-10-2.7-20.4,3.2-23.2,13.3L135.3,475c-2.7,10.1,3.2,20.4,13.3,23.2c1.7,0.4,3.3,0.7,5,0.7
		c8.3,0,15.9-5.5,18.2-13.9L202,373.3C204.8,363.3,198.8,352.9,188.8,350.2z"/>
	<path class="st0" d="M264.5,306.3c-10-2.7-20.4,3.2-23.2,13.3L211,431.1c-2.7,10.1,3.2,20.4,13.3,23.2c1.7,0.4,3.3,0.7,5,0.7
		c8.3,0,15.9-5.5,18.2-13.9l30.3-111.5C280.5,319.4,274.6,309.1,264.5,306.3z"/>
	<path class="st0" d="M288.3,215.8h-6.1c-2.1-8.4-5.4-18.6-10.8-28.8c-17.7-33.4-49.4-51.8-89.2-51.8c-40,0-71.5,18.5-88.7,52
		c-5.6,10.9-8.8,21.6-10.7,30.3c-42.1,7.7-71,40.9-71,84.6c0,27.9,13.2,54,35.4,69.7c9.7,6.9,23.2,4.6,30.1-5.1
		c6.9-9.7,4.6-23.2-5.1-30.1c-11-7.8-17.3-20.4-17.3-34.6c0-25.8,18.8-43.1,46.8-43.1c11.7,0,21.2-9.3,21.6-20.9
		c0.2-6.1,3.4-59.6,59-59.6c23.7,0,40.2,9.1,50.5,27.8c8.6,15.6,9.7,32.2,9.7,32.2c0.5,11.5,10,20.6,21.6,20.6h24.4
		c28,0,46.8,17.3,46.8,43.1c0,21.4-13.8,37.9-35.2,42.1c-11.7,2.3-19.3,13.6-17.1,25.3c2,10.3,11,17.5,21.2,17.5
		c1.4,0,2.7-0.1,4.1-0.4c41.3-8,70.2-42.7,70.2-84.4C378.2,252.1,340.4,215.8,288.3,215.8z"/>
</g>
</svg>
