<?xml version="1.0" encoding="utf-8"?>
<!-- Generator: Adobe Illustrator 21.0.2, SVG Export Plug-In . SVG Version: 6.00 Build 0)  -->
<svg version="1.1" id="Layer_1" xmlns="http://www.w3.org/2000/svg" xmlns:xlink="http://www.w3.org/1999/xlink" x="0px" y="0px"
	 viewBox="0 0 512 512" style="enable-background:new 0 0 512 512;" xml:space="preserve">
<style type="text/css">
	.st0{fill:#FFFFFF;}
</style>
<g>
	<path class="st0" d="M349.4,169.9h-6.1c-2.1-8.4-5.4-18.6-10.8-28.8c-17.7-33.4-49.4-51.8-89.2-51.8c-40,0-71.5,18.5-88.7,52
		c-5.6,10.9-8.8,21.6-10.7,30.3c-42.1,7.7-71,40.9-71,84.6c0,40.5,26.6,74.1,66.1,83.5c11.6,2.8,23.2-4.4,26-16s-4.4-23.2-16-26
		c-20.1-4.8-33-21.1-33-41.6c0-25.8,18.8-43.1,46.8-43.1c11.7,0,21.2-9.3,21.6-20.9c0.2-6.1,3.4-59.6,59-59.6
		c23.7,0,40.2,9.1,50.5,27.8c8.6,15.6,9.7,32.2,9.7,32.2c0.5,11.5,10,20.6,21.6,20.6h24.4c28,0,46.8,17.3,46.8,43.1
		c0,20.8-14.6,43.1-46.8,43.1c-11.9,0-21.6,9.7-21.6,21.6s9.7,21.6,21.6,21.6c51.3,0,89.9-37.1,89.9-86.3
		C439.3,206.2,401.5,169.9,349.4,169.9z"/>
	<path class="st0" d="M291.9,305.3H268l29.6-41.4c1.8-2.5,2-5.7,0.6-8.4s-4.2-4.4-7.2-4.4h-58.8c-3.3,0-6.4,2.1-7.6,5.2L192,341.6
		c-1,2.5-0.6,5.3,0.9,7.5s4,3.5,6.7,3.5l0,0H217l-22.5,59.1c-1.4,3.7,0,7.8,3.4,9.8c1.3,0.8,2.8,1.2,4.2,1.2c2.3,0,4.5-0.9,6.1-2.7
		l89.7-101.2c2.1-2.4,2.6-5.8,1.3-8.7C297.9,307.1,295.1,305.3,291.9,305.3z"/>
</g>
</svg>
