<?xml version="1.0" encoding="utf-8"?>
<!-- Generator: Adobe Illustrator 21.0.2, SVG Export Plug-In . SVG Version: 6.00 Build 0)  -->
<svg version="1.1" id="Layer_1" xmlns="http://www.w3.org/2000/svg" xmlns:xlink="http://www.w3.org/1999/xlink" x="0px" y="0px"
	 viewBox="0 0 512 512" style="enable-background:new 0 0 512 512;" xml:space="preserve">
<style type="text/css">
	.st0{fill:#FFFFFF;}
</style>
<g>
	<path class="st0" d="M349.4,163.9h-6.1c-2.1-8.4-5.4-18.6-10.8-28.8c-17.7-33.4-49.4-51.8-89.2-51.8c-40,0-71.5,18.5-88.7,52
		c-5.6,10.9-8.8,21.6-10.7,30.3c-42.1,7.7-71,40.9-71,84.6c0,23.6,9.1,45.5,25.6,61.5c8.5,8.3,22.2,8.1,30.5-0.4
		c8.3-8.5,8.1-22.2-0.4-30.5c-8.1-7.8-12.5-18.7-12.5-30.6c0-25.8,18.8-43.1,46.8-43.1c11.7,0,21.2-9.3,21.6-20.9
		c0.2-6.1,3.4-59.6,59-59.6c23.7,0,40.2,9.1,50.5,27.8c8.6,15.6,9.7,32.2,9.7,32.2c0.5,11.5,10,20.6,21.6,20.6h24.4
		c28,0,46.8,17.3,46.8,43.1c0,18.8-10.9,34.2-28.4,40.2c-11.3,3.9-17.2,16.2-13.3,27.4c3.1,8.9,11.4,14.5,20.4,14.5
		c2.3,0,4.7-0.4,7.1-1.2c34.9-12.1,57.4-43.8,57.4-81C439.3,200.1,401.5,163.9,349.4,163.9z"/>
	<path class="st0" d="M245.7,280.9c8.9,0,16.2-7.2,16.2-16.2v-15.3c0-8.9-7.2-16.2-16.2-16.2c-8.9,0-16.2,7.2-16.2,16.2v15.3
		C229.6,273.6,236.8,280.9,245.7,280.9z"/>
	<path class="st0" d="M245.7,309.4c-5.7,0-11.3,2.3-15.3,6.3s-6.3,9.5-6.3,15.3c0,5.7,2.3,11.2,6.3,15.2s9.5,6.4,15.3,6.4
		c5.7,0,11.2-2.3,15.2-6.4c4-4,6.4-9.5,6.4-15.2s-2.3-11.3-6.4-15.3C257,311.7,251.4,309.4,245.7,309.4z"/>
	<path class="st0" d="M245.7,381.1c-8.9,0-16.2,7.2-16.2,16.2v15.3c0,8.9,7.2,16.2,16.2,16.2c8.9,0,16.2-7.2,16.2-16.2v-15.3
		C261.9,388.3,254.7,381.1,245.7,381.1z"/>
	<path class="st0" d="M308.3,276.2l-13.2,7.6c-7.7,4.5-10.4,14.4-5.9,22.1c3,5.2,8.4,8.1,14,8.1c2.7,0,5.5-0.7,8.1-2.2l13.2-7.6
		c7.7-4.5,10.4-14.4,5.9-22.1S316,271.7,308.3,276.2z"/>
	<path class="st0" d="M180.2,350.1l-13.2,7.6c-7.7,4.5-10.4,14.4-5.9,22.1c3,5.2,8.4,8.1,14,8.1c2.7,0,5.5-0.7,8.1-2.2l13.2-7.6
		c7.7-4.5,10.4-14.4,5.9-22.1C197.9,348.3,188,345.6,180.2,350.1z"/>
	<path class="st0" d="M324.4,357.8l-13.2-7.6c-7.7-4.5-17.6-1.8-22.1,5.9c-4.5,7.7-1.8,17.6,5.9,22.1l13.2,7.6
		c2.5,1.5,5.3,2.2,8.1,2.2c5.6,0,11-2.9,14-8.1C334.8,372.1,332.2,362.2,324.4,357.8z"/>
	<path class="st0" d="M167,304.2l13.2,7.6c2.5,1.5,5.3,2.2,8.1,2.2c5.6,0,11-2.9,14-8.1c4.5-7.7,1.8-17.6-5.9-22.1l-13.2-7.6
		c-7.7-4.5-17.6-1.8-22.1,5.9C156.6,289.9,159.3,299.8,167,304.2z"/>
</g>
</svg>
