<?xml version="1.0" encoding="utf-8"?>
<!-- Generator: Adobe Illustrator 21.0.2, SVG Export Plug-In . SVG Version: 6.00 Build 0)  -->
<svg version="1.1" id="Layer_1" xmlns="http://www.w3.org/2000/svg" xmlns:xlink="http://www.w3.org/1999/xlink" x="0px" y="0px"
	 viewBox="0 0 512 512" style="enable-background:new 0 0 512 512;" xml:space="preserve">
<style type="text/css">
	.st0{fill:#FFFFFF;}
</style>
<g>
	<path class="st0" d="M111.3,183.6h257.6c11.9,0,21.6-9.7,21.6-21.6s-9.7-21.6-21.6-21.6H111.3c-11.9,0-21.6,9.7-21.6,21.6
		S99.4,183.6,111.3,183.6z"/>
	<path class="st0" d="M377.4,257.3c0-11.9-9.7-21.6-21.6-21.6H32.7c-11.9,0-21.6,9.7-21.6,21.6s9.7,21.6,21.6,21.6h323.1
		C367.8,278.9,377.4,269.3,377.4,257.3z"/>
	<path class="st0" d="M479.3,331.1H156.1c-11.9,0-21.6,9.7-21.6,21.6s9.7,21.6,21.6,21.6h323.1c11.9,0,21.6-9.7,21.6-21.6
		S491.2,331.1,479.3,331.1z"/>
	<path class="st0" d="M433.6,186.2h0.8c13.4,0,24.3-10.9,24.3-24.3c0-13.4-10.9-24.3-24.3-24.3h-0.8c-13.4,0-24.3,10.9-24.3,24.3
		C409.3,175.4,420.2,186.2,433.6,186.2z"/>
</g>
</svg>
