<?xml version="1.0" encoding="utf-8"?>
<!-- Generator: Adobe Illustrator 21.0.2, SVG Export Plug-In . SVG Version: 6.00 Build 0)  -->
<svg version="1.1" id="Layer_1" xmlns="http://www.w3.org/2000/svg" xmlns:xlink="http://www.w3.org/1999/xlink" x="0px" y="0px"
	 viewBox="0 0 512 512" style="enable-background:new 0 0 512 512;" xml:space="preserve">
<g>
	<path d="M256,137.4c-65.4,0-118.6,53.2-118.6,118.6c0,65.4,53.2,118.6,118.6,118.6c65.4,0,118.6-53.2,118.6-118.6
		C374.6,190.6,321.4,137.4,256,137.4z M256,331.5c-41.6,0-75.5-33.9-75.5-75.5c0-41.6,33.9-75.5,75.5-75.5
		c41.6,0,75.5,33.9,75.5,75.5C331.5,297.6,297.6,331.5,256,331.5z"/>
	<path d="M256,98.2c11.9,0,21.6-9.7,21.6-21.6V32.7c0-11.9-9.7-21.6-21.6-21.6c-11.9,0-21.6,9.7-21.6,21.6v43.9
		C234.4,88.6,244.1,98.2,256,98.2z"/>
	<path d="M479.3,234.4h-43.9c-11.9,0-21.6,9.7-21.6,21.6c0,11.9,9.7,21.6,21.6,21.6h43.9c11.9,0,21.6-9.7,21.6-21.6
		C500.8,244.1,491.2,234.4,479.3,234.4z"/>
	<path d="M256,413.8c-11.9,0-21.6,9.7-21.6,21.6v43.9c0,11.9,9.7,21.6,21.6,21.6c11.9,0,21.6-9.7,21.6-21.6v-43.9
		C277.6,423.4,267.9,413.8,256,413.8z"/>
	<path d="M98.2,256c0-11.9-9.7-21.6-21.6-21.6H32.7c-11.9,0-21.6,9.7-21.6,21.6c0,11.9,9.7,21.6,21.6,21.6h43.9
		C88.6,277.6,98.2,267.9,98.2,256z"/>
	<path d="M382.8,150.8c5.5,0,11-2.1,15.3-6.3l31.1-31.1c8.4-8.4,8.4-22.1,0-30.5c-8.4-8.4-22.1-8.4-30.5,0l-31.1,31.1
		c-8.4,8.4-8.4,22.1,0,30.5C371.8,148.7,377.3,150.8,382.8,150.8z"/>
	<path d="M398.1,367.6c-8.4-8.4-22.1-8.4-30.5,0c-8.4,8.4-8.4,22.1,0,30.5l31.1,31.1c4.2,4.2,9.7,6.3,15.3,6.3
		c5.5,0,11-2.1,15.3-6.3c8.4-8.4,8.4-22.1,0-30.5L398.1,367.6z"/>
	<path d="M113.9,367.6l-31.1,31.1c-8.4,8.4-8.4,22.1,0,30.5c4.2,4.2,9.7,6.3,15.3,6.3s11-2.1,15.3-6.3l31.1-31.1
		c8.4-8.4,8.4-22.1,0-30.5C136,359.1,122.4,359.1,113.9,367.6z"/>
	<path d="M113.9,144.4c4.2,4.2,9.7,6.3,15.3,6.3c5.5,0,11-2.1,15.3-6.3c8.4-8.4,8.4-22.1,0-30.5l-31.1-31.1
		c-8.4-8.4-22.1-8.4-30.5,0c-8.4,8.4-8.4,22.1,0,30.5L113.9,144.4z"/>
</g>
</svg>
