<?xml version="1.0" encoding="utf-8"?>
<!-- Generator: Adobe Illustrator 21.0.2, SVG Export Plug-In . SVG Version: 6.00 Build 0)  -->
<svg version="1.1" id="Layer_1" xmlns="http://www.w3.org/2000/svg" xmlns:xlink="http://www.w3.org/1999/xlink" x="0px" y="0px"
	 viewBox="0 0 512 512" style="enable-background:new 0 0 512 512;" xml:space="preserve">
<g>
	<path d="M334.8,317c-11.4,3.7-23.3,5.6-35.3,5.6c-40.2,0-77.5-21.4-97.5-55.9c-26.4-45.7-16.8-104.6,22.8-140.1
		c6.9-6.2,9.1-16,5.5-24.5c-3.6-8.5-12.2-13.8-21.4-13.1c-25.3,1.8-49.4,9.2-71.6,22C57.5,157.1,30.1,259.6,76.2,339.4
		C105.9,391,161.5,423,221.1,423c29.2,0,58-7.8,83.5-22.4c22.1-12.8,40.6-29.9,54.8-51c5.2-7.6,4.9-17.7-0.6-25.1
		C353.2,317.2,343.6,314.2,334.8,317z M221.1,379.9c-44.3,0-85.5-23.8-107.6-62c-33.7-58.5-14.4-133.2,43.1-168.1
		c-18.6,44-16.8,95.5,8.1,138.5c24.4,42.3,67.7,70.4,115.8,76.3C262.2,374.6,241.8,379.9,221.1,379.9z"/>
	<path d="M291,235.6c5,0,9.9-2.1,13.4-5.6c3.5-3.5,5.5-8.4,5.5-13.3c0-5-2-9.8-5.5-13.4c-7.1-7-19.7-7-26.7,0
		c-3.5,3.5-5.6,8.4-5.6,13.4c0,5,2,9.8,5.6,13.3C281.2,233.6,286.1,235.6,291,235.6z"/>
	<path d="M366.5,95.4c-6.4,0-12.7,2.6-17.1,7.1c-4.5,4.5-7.1,10.7-7.1,17.2c0,6.4,2.6,12.6,7.1,17.1c4.5,4.5,10.8,7.1,17.1,7.1
		c6.4,0,12.7-2.6,17.1-7.1c4.5-4.5,7.1-10.8,7.1-17.1c0-6.4-2.6-12.6-7.1-17.2C379.2,98,372.9,95.4,366.5,95.4z"/>
	<path d="M451.9,233.8c-4-4-9.5-6.3-15.3-6.3c-5.7,0-11.2,2.3-15.3,6.3c-4,4-6.3,9.6-6.3,15.3c0,5.7,2.3,11.2,6.3,15.3
		c4,4,9.6,6.3,15.3,6.3s11.2-2.3,15.3-6.3c4-4,6.3-9.6,6.3-15.3C458.2,243.4,455.9,237.9,451.9,233.8z"/>
</g>
</svg>
