<?xml version="1.0" encoding="utf-8"?>
<!-- Generator: Adobe Illustrator 21.0.2, SVG Export Plug-In . SVG Version: 6.00 Build 0)  -->
<svg version="1.1" id="Layer_1" xmlns="http://www.w3.org/2000/svg" xmlns:xlink="http://www.w3.org/1999/xlink" x="0px" y="0px"
	 viewBox="0 0 514.5 512" style="enable-background:new 0 0 514.5 512;" xml:space="preserve">
<g>
	<path d="M289.8,271h-6.1c-2.1-8.4-5.4-18.5-10.8-28.8c-17.7-33.4-49.4-51.7-89.2-51.7c-40,0-71.5,18.5-88.7,52
		c-5.6,10.8-8.8,21.6-10.7,30.3c-42.1,7.7-71,40.9-71,84.6c0,44,31,78.4,74.3,85.1c2.2,0.8,4.6,1.2,7.1,1.2H290
		c51.3,0,89.9-37.1,89.9-86.3C379.7,307.3,341.9,271,289.8,271z M289.8,400.4H103.1c-32.1,0-46.8-22.3-46.8-43.1
		c0-25.8,18.8-43.1,46.8-43.1c11.7,0,21.2-9.3,21.6-20.9c0.2-6.1,3.4-59.6,59-59.6c23.7,0,40.2,9.1,50.5,27.7
		c8.6,15.6,9.7,32.2,9.7,32.2c0.5,11.5,10,20.6,21.6,20.6h24.4c28,0,46.8,17.3,46.8,43.1C336.5,378.1,321.9,400.4,289.8,400.4z"/>
	<path d="M498.6,246.3c-3.2-4.9-8.9-7.7-14.8-7.2c-35.5,2.8-70-15.3-87.8-46.1c-17.8-30.9-16.3-69.8,4-99.1
		c3.3-4.9,3.8-11.1,1.1-16.4c-2.6-5.3-7.9-8.7-13.8-8.9c-25-1-49.9,5.1-71.6,17.7c-30.2,17.5-52,45.6-61.4,79.2
		c-2.4,8.6,2.6,17.5,11.2,19.9s17.5-2.6,19.9-11.2c7.1-25.4,23.6-46.7,46.4-59.9c8.5-4.9,17.6-8.5,27.1-10.7
		c-12.5,34.3-9.6,73.3,9.1,105.7s51,54.4,87,60.7c-6.7,7.1-14.3,13.2-22.9,18.1c-7.8,4.5-16,7.9-24.5,10.1
		c-8.6,2.3-13.8,11.1-11.5,19.8c1.9,7.3,8.5,12.1,15.6,12.1c1.4,0,2.8-0.2,4.1-0.5c11.3-3,22.2-7.5,32.4-13.4
		c21.8-12.6,39.5-31,51.1-53.2C502.2,257.5,501.9,251.2,498.6,246.3z"/>
</g>
</svg>
