<?xml version="1.0" encoding="utf-8"?>
<!-- Generator: Adobe Illustrator 21.0.2, SVG Export Plug-In . SVG Version: 6.00 Build 0)  -->
<svg version="1.1" id="Capa_1" xmlns="http://www.w3.org/2000/svg" xmlns:xlink="http://www.w3.org/1999/xlink" x="0px" y="0px"
	 viewBox="0 0 512 512" style="enable-background:new 0 0 512 512;" xml:space="preserve">
<path d="M349.4,382.5H154.1c-2.5,0-4.9-0.4-7.1-1.2c-43.3-6.7-74.3-41-74.3-85.1c0-43.7,28.9-76.9,71-84.6
	c1.9-8.7,5.2-19.4,10.7-30.3c17.3-33.5,48.8-52,88.7-52c39.9,0,71.5,18.4,89.2,51.8c5.4,10.3,8.8,20.4,10.8,28.8h6.1
	c52.1,0,89.9,36.3,89.9,86.3C439.3,345.5,400.6,382.5,349.4,382.5z M162.6,339.4h186.7c32.1,0,46.8-22.4,46.8-43.1
	c0-25.8-18.8-43.1-46.8-43.1h-24.4c-11.5,0-21-9.1-21.6-20.6c0,0-1-16.6-9.7-32.2c-10.3-18.7-26.8-27.8-50.5-27.8
	c-55.6,0-58.8,53.5-59,59.6c-0.4,11.7-9.9,20.9-21.6,20.9c-28,0-46.8,17.3-46.8,43.1C115.9,317,130.5,339.4,162.6,339.4z"/>
</svg>
