<?xml version="1.0" encoding="utf-8"?>
<!-- Generator: Adobe Illustrator 21.0.2, SVG Export Plug-In . SVG Version: 6.00 Build 0)  -->
<svg version="1.1" id="Layer_1" xmlns="http://www.w3.org/2000/svg" xmlns:xlink="http://www.w3.org/1999/xlink" x="0px" y="0px"
	 viewBox="0 0 512 512" style="enable-background:new 0 0 512 512;" xml:space="preserve">
<g>
	<path d="M349.4,154.8h-6.1c-2.1-8.4-5.4-18.6-10.8-28.8c-17.7-33.4-49.4-51.8-89.2-51.8c-40,0-71.5,18.5-88.7,52
		c-5.6,10.9-8.8,21.6-10.7,30.3c-42.1,7.7-71,40.9-71,84.6c0,27.9,13.2,54,35.4,69.7c9.7,6.9,23.2,4.6,30.1-5.1
		c6.9-9.7,4.6-23.2-5.1-30.1c-11-7.8-17.3-20.4-17.3-34.6c0-25.8,18.8-43.1,46.8-43.1c11.7,0,21.2-9.3,21.6-20.9
		c0.2-6.1,3.4-59.6,59-59.6c23.7,0,40.2,9.1,50.5,27.8c8.6,15.6,9.7,32.2,9.7,32.2c0.5,11.5,10,20.6,21.6,20.6h24.4
		c28,0,46.8,17.3,46.8,43.1c0,21.4-13.8,37.9-35.2,42.1c-11.7,2.3-19.3,13.6-17.1,25.3c2,10.3,11,17.5,21.2,17.5
		c1.4,0,2.7-0.1,4.1-0.4c41.3-8,70.2-42.7,70.2-84.4C439.3,191.1,401.5,154.8,349.4,154.8z"/>
	<path d="M197.9,245.3c-10.1-2.7-20.4,3.2-23.2,13.3l-30.3,111.5c-2.7,10.1,3.2,20.4,13.3,23.2c1.7,0.5,3.3,0.7,5,0.7
		c8.3,0,15.9-5.5,18.2-13.9l30.3-111.5C213.9,258.4,208,248,197.9,245.3z"/>
	<path d="M249.8,289.2c-10-2.7-20.4,3.2-23.2,13.3l-30.3,111.5c-2.7,10.1,3.2,20.4,13.3,23.2c1.7,0.5,3.3,0.7,5,0.7
		c8.3,0,15.9-5.5,18.2-13.9l30.3-111.5C265.8,302.3,259.9,291.9,249.8,289.2z"/>
	<path d="M325.6,245.3c-10.1-2.7-20.4,3.2-23.2,13.3l-30.3,111.5c-2.7,10.1,3.2,20.4,13.3,23.2c1.7,0.5,3.3,0.7,5,0.7
		c8.3,0,15.9-5.5,18.2-13.9l30.3-111.5C341.6,258.4,335.6,248,325.6,245.3z"/>
</g>
</svg>
