<?xml version="1.0" encoding="utf-8"?>
<!-- Generator: Adobe Illustrator 21.0.2, SVG Export Plug-In . SVG Version: 6.00 Build 0)  -->
<svg version="1.1" id="Layer_1" xmlns="http://www.w3.org/2000/svg" xmlns:xlink="http://www.w3.org/1999/xlink" x="0px" y="0px"
	 viewBox="0 0 512 512" style="enable-background:new 0 0 512 512;" xml:space="preserve">
<g>
	<path d="M146.5,283c-10-2.7-20.4,3.2-23.2,13.3L93.1,407.7c-2.7,10.1,3.2,20.4,13.3,23.2c1.7,0.4,3.3,0.7,5,0.7
		c8.3,0,15.9-5.5,18.2-13.9l30.3-111.5C162.5,296.1,156.6,285.7,146.5,283z"/>
	<path d="M198.4,326.8c-10-2.7-20.4,3.2-23.2,13.3L145,451.6c-2.7,10.1,3.2,20.4,13.3,23.2c1.7,0.4,3.3,0.7,5,0.7
		c8.3,0,15.9-5.5,18.2-13.9L211.7,350C214.4,339.9,208.5,329.5,198.4,326.8z"/>
	<path d="M274.2,283c-10.1-2.7-20.4,3.2-23.2,13.3l-30.3,111.5c-2.7,10.1,3.2,20.4,13.3,23.2c1.7,0.4,3.3,0.7,5,0.7
		c8.3,0,15.9-5.5,18.2-13.9l30.3-111.5C290.2,296.1,284.3,285.7,274.2,283z"/>
	<path d="M298,192.5h-6.1c-2.1-8.4-5.4-18.6-10.8-28.8c-17.7-33.4-49.4-51.8-89.2-51.8c-40,0-71.5,18.5-88.7,52
		c-5.6,10.9-8.8,21.6-10.7,30.3c-42.1,7.7-71,40.9-71,84.6c0,27.9,13.2,54,35.4,69.7c9.7,6.9,23.2,4.6,30.1-5.1
		c6.9-9.7,4.6-23.2-5.1-30.1c-11-7.8-17.3-20.4-17.3-34.6c0-25.8,18.8-43.1,46.8-43.1c11.7,0,21.2-9.3,21.6-20.9
		c0.2-6.1,3.4-59.6,59-59.6c23.7,0,40.2,9.1,50.5,27.8C251,198.4,252,215,252,215c0.5,11.5,10,20.6,21.6,20.6H298
		c28,0,46.8,17.3,46.8,43.1c0,21.4-13.8,37.9-35.3,42.1c-11.7,2.3-19.3,13.6-17.1,25.3c2,10.3,11,17.5,21.2,17.5
		c1.4,0,2.7-0.1,4.1-0.4c41.3-8,70.2-42.7,70.2-84.4C387.9,228.8,350.1,192.5,298,192.5z"/>
	<path d="M488,175.4c-3.2-4.9-8.9-7.7-14.8-7.2c-26,2.1-51.2-11.2-64.2-33.7c-13-22.6-11.9-51,2.9-72.5c3.3-4.9,3.8-11.1,1.1-16.4
		c-2.6-5.3-7.9-8.7-13.8-8.9c-20.1-0.8-39.8,4.1-57.3,14.1c-28.8,16.6-47.8,45.1-52.1,78.1c-1.2,8.9,5.1,17,13.9,18.1
		c8.9,1.2,17-5.1,18.1-13.9c3-22.9,16.2-42.7,36.2-54.3c4.3-2.5,8.8-4.5,13.4-6c-7.4,25.8-4.3,54.1,9.4,77.9
		c13.8,23.8,36.7,40.6,62.8,47.1c-3.7,3.2-7.6,6.1-11.9,8.6c-4.3,2.5-8.9,4.6-13.6,6.1c-8.5,2.8-13.1,12-10.2,20.5
		c2.3,6.8,8.6,11.1,15.3,11.1c1.7,0,3.4-0.3,5.1-0.8c6.8-2.3,13.4-5.2,19.6-8.8c17.4-10,31.5-24.8,40.8-42.5
		C491.6,186.7,491.3,180.4,488,175.4z"/>
</g>
</svg>
